<svg width="59" height="35" viewBox="0 0 59 35" fill="none" xmlns="http://www.w3.org/2000/svg">
<path d="M1 4.55659V9.75461L4 9.16198L7 8.76958L10.0303 8.49792L13.0909 8.347L16.1515 8.28663L19.2121 8.40737L22.2121 8.58848L25.2424 8.98088V26.2163L25.2121 26.6087L25.1818 26.8803L25.0909 27.2124L24.9697 27.5142L24.8182 27.7859L24.6364 28.0274L24.4242 28.2688L24.1818 28.4801L23.6667 28.8725L23.3636 29.0536L23.0909 29.2046L22.5455 29.446L21.9394 29.6573L21.1515 29.8686L20.4242 30.0195L19.697 30.1403L18.9697 30.2308L17.4242 30.3516L15.9394 30.3818H15.2121L13.9394 30.3516L12.7273 30.2912L11.5152 30.2006L10.7273 30.1101L10.0606 29.9894L9.21212 29.8082L8.42424 29.5668L8 29.4158L7.60606 29.2347L7.18182 29.0234L6.84848 28.8122L6.51515 28.5707L6.24242 28.3292L6.09091 28.1783L5.9697 28.0274L5.84848 27.8764L5.72727 27.6651L5.63636 27.484L5.54545 27.2727L5.45455 26.9407L5.39394 26.5181V26.2465L0 27.7557L0.0606061 28.1481L0.151515 28.6311L0.272727 29.0536L0.333333 29.2347L0.454545 29.5366L0.545455 29.7479L0.69697 30.0195L0.909091 30.3818L1.21212 30.8043L1.51515 31.1666L1.81818 31.4684L2 31.6495L2.24242 31.8608L2.63636 32.1626L3.0303 32.4343L3.39394 32.6456L3.75758 32.8569L4 32.9776L4.36364 33.1587L4.84848 33.37L5.87879 33.7322L6.57576 33.9435L7.24242 34.1246L8.42424 34.3661L9.69697 34.5774L11.0303 34.7283L12.3939 34.8491L15.0303 34.9396L16.7879 34.9094L17.697 34.8793L18.5455 34.8189L19.3333 34.7585L20 34.6982L20.7879 34.6076L21.6364 34.4869L22.5455 34.3359L23.3939 34.1548L24.2424 33.9435L25.0303 33.7021L25.7576 33.4606L26.4848 33.1587L27 32.9173L27.3939 32.706L28.1818 32.223L28.6667 31.8306L29.1515 31.3778L29.4848 30.9854L29.6667 30.744L29.7879 30.5629L29.9394 30.3214L30.1212 30.0195L30.3636 29.4762L30.5455 28.6914L30.6061 28.2688L30.6364 27.8463V8.98088C35.1984 8.0139 37.7602 7.88224 42.3333 8.28663V35H47.2727V8.31682L48.697 8.37718L50.1212 8.46774L51.5455 8.58848L53 8.76958L54.4545 8.98088L56.1515 9.28272L56.9091 9.43365L57.6061 9.61475L58.3333 9.79586L59 9.97697V4.72485C36.8144 -1.54577 24.0806 -1.54743 1 4.55659Z" fill="#A60FF5"/>
</svg>
