<svg width="213" height="28" viewBox="0 0 213 28" fill="none" xmlns="http://www.w3.org/2000/svg">
<path d="M13.501 0.989258C15.3581 0.989258 17.3405 1.05762 19.4482 1.19434C21.5674 1.31966 23.7891 1.57031 26.1133 1.94629V21.0186C26.1133 21.7819 25.9424 22.4655 25.6006 23.0693C25.2702 23.6618 24.8088 24.1802 24.2163 24.6245C23.6353 25.0575 22.9403 25.4277 22.1313 25.7354C21.3338 26.0316 20.4679 26.2708 19.5337 26.4531C18.6108 26.6354 17.6367 26.7664 16.6113 26.8462C15.5859 26.9259 14.5605 26.9658 13.5352 26.9658C12.487 26.9658 11.4559 26.9259 10.4419 26.8462C9.4279 26.7664 8.46517 26.6354 7.55371 26.4531C6.64225 26.2708 5.79346 26.0316 5.00732 25.7354C4.23258 25.4277 3.54899 25.0575 2.95654 24.6245C2.3641 24.1802 1.88558 23.6618 1.521 23.0693C1.15641 22.4769 0.934245 21.7933 0.854492 21.0186L5.29785 19.7881C5.29785 20.4945 5.53711 21.0698 6.01562 21.5142C6.49414 21.9585 7.12077 22.306 7.89551 22.5566C8.68164 22.8073 9.56462 22.9782 10.5444 23.0693C11.5243 23.1605 12.5212 23.2061 13.5352 23.2061C14.5719 23.2061 15.5745 23.1605 16.543 23.0693C17.5228 22.9668 18.3887 22.7902 19.1406 22.5396C19.904 22.2775 20.5135 21.9243 20.9692 21.48C21.4364 21.0356 21.6699 20.4717 21.6699 19.7881V5.4668C20.5306 5.30729 19.3058 5.17627 17.9956 5.07373C16.6968 4.97119 15.3695 4.91992 14.0137 4.91992H13.4326C11.5072 4.94271 9.57031 5.03955 7.62207 5.21045C5.68522 5.36995 3.7028 5.67188 1.6748 6.11621V1.80957C3.83952 1.47917 5.90739 1.2627 7.87842 1.16016C9.86084 1.04622 11.735 0.989258 13.501 0.989258ZM104.289 1.02344C106.055 1.02344 107.912 1.0861 109.86 1.21143C111.809 1.33675 113.859 1.58171 116.013 1.94629V6.28711C115.249 6.07064 114.378 5.86556 113.398 5.67188C112.555 5.51237 111.541 5.35856 110.356 5.21045C109.171 5.06234 107.832 4.96549 106.34 4.91992V27.0342H102.272V4.91992C100.78 4.96549 99.4412 5.06234 98.2563 5.21045C97.0715 5.35856 96.0575 5.51237 95.2144 5.67188C94.2345 5.86556 93.363 6.07064 92.5996 6.28711V1.94629C94.7301 1.58171 96.7809 1.33675 98.752 1.21143C100.723 1.0861 102.569 1.02344 104.289 1.02344Z" fill="#A60FF5"/>
<path d="M48.7334 20.7622C48.7334 21.5256 48.6366 22.2148 48.4429 22.8301C48.2492 23.4339 47.9928 23.9694 47.6738 24.4365C47.3548 24.8923 46.9845 25.2853 46.563 25.6157C46.1414 25.9347 45.6971 26.1968 45.23 26.4019C44.7743 26.6069 44.3071 26.7607 43.8286 26.8633C43.3615 26.9544 42.9172 27 42.4956 27H34.4805C33.8652 27 33.193 26.8918 32.4639 26.6753C31.7347 26.4588 31.0568 26.1056 30.4302 25.6157C29.8149 25.1144 29.2965 24.4707 28.875 23.6846C28.4648 22.887 28.2598 21.9129 28.2598 20.7622V14.7466C28.2598 13.6073 28.4648 12.6445 28.875 11.8584C29.2965 11.0609 29.8149 10.4172 30.4302 9.92725C31.0568 9.42594 31.7347 9.06706 32.4639 8.85059C33.193 8.63411 33.8652 8.52588 34.4805 8.52588H42.4956C43.6349 8.52588 44.6034 8.73096 45.4009 9.14111C46.1984 9.55127 46.8421 10.0697 47.332 10.6963C47.8219 11.3115 48.1751 11.9837 48.3916 12.7129C48.6195 13.4421 48.7334 14.12 48.7334 14.7466V20.7622ZM44.29 14.7808C44.29 14.1655 44.1362 13.7098 43.8286 13.4136C43.521 13.1174 43.0767 12.9692 42.4956 12.9692H34.5146C33.9222 12.9692 33.4722 13.123 33.1646 13.4307C32.8569 13.7269 32.7031 14.1655 32.7031 14.7466V20.7622C32.7031 21.3433 32.8569 21.7876 33.1646 22.0952C33.4722 22.4028 33.9222 22.5566 34.5146 22.5566H42.4956C43.0994 22.5566 43.5495 22.4028 43.8457 22.0952C44.1419 21.7876 44.29 21.3433 44.29 20.7622V14.7808ZM69.8496 20.8818C69.8496 21.4971 69.7414 22.1636 69.5249 22.8813C69.3084 23.5877 68.9552 24.2485 68.4653 24.8638C67.9868 25.4676 67.3545 25.9746 66.5684 26.3848C65.7936 26.7949 64.848 27 63.7314 27H55.7163C55.1011 27 54.4346 26.8918 53.7168 26.6753C53.0104 26.4588 52.3496 26.1113 51.7344 25.6328C51.1305 25.1429 50.6235 24.5106 50.2134 23.7358C49.8032 22.9497 49.5981 21.9984 49.5981 20.8818C49.5981 20.2666 49.7064 19.6001 49.9229 18.8823C50.1393 18.1646 50.4868 17.5037 50.9653 16.8999C51.4552 16.2847 52.0876 15.772 52.8623 15.3618C53.6484 14.9517 54.5998 14.7466 55.7163 14.7466H63.7314V18.9849H55.7163C55.1125 18.9849 54.6453 19.1729 54.3149 19.5488C53.9845 19.9134 53.8193 20.3691 53.8193 20.916C53.8193 21.4971 54.0073 21.9528 54.3833 22.2832C54.7707 22.6022 55.2264 22.7617 55.7505 22.7617H63.7314C64.3353 22.7617 64.8024 22.5794 65.1328 22.2148C65.4632 21.8503 65.6284 21.3945 65.6284 20.8477V14.644C65.6284 14.063 65.4461 13.6016 65.0815 13.2598C64.7284 12.918 64.2783 12.7471 63.7314 12.7471H53.9731V8.52588H63.7314C64.3467 8.52588 65.0075 8.63411 65.7139 8.85059C66.4316 9.06706 67.0924 9.42025 67.6963 9.91016C68.3115 10.3887 68.8242 11.021 69.2344 11.8071C69.6445 12.5819 69.8496 13.5275 69.8496 14.644V20.8818ZM66.4316 0.134766C66.4316 1.22852 66.3177 2.15137 66.0898 2.90332C65.862 3.65527 65.5544 4.26481 65.167 4.73193C64.7796 5.18766 64.3239 5.51807 63.7998 5.72314C63.2871 5.91683 62.7402 6.01367 62.1592 6.01367C61.5439 6.01367 61.0256 5.90544 60.604 5.68896C60.1825 5.47249 59.8065 5.23893 59.4761 4.98828C59.1457 4.72624 58.8324 4.48698 58.5361 4.27051C58.2399 4.05404 57.9095 3.9458 57.5449 3.9458C57.2031 3.9458 56.9297 4.03125 56.7246 4.20215C56.5309 4.37305 56.3828 4.57812 56.2803 4.81738C56.1777 5.04525 56.1094 5.27311 56.0752 5.50098C56.041 5.72884 56.0182 5.89974 56.0068 6.01367H52.9819C52.9819 5.04525 53.0959 4.19645 53.3237 3.46729C53.563 2.72673 53.8763 2.11149 54.2637 1.62158C54.6624 1.12028 55.1182 0.75 55.6309 0.510742C56.1549 0.260091 56.7075 0.134766 57.2886 0.134766C57.8241 0.134766 58.2855 0.243001 58.6729 0.459473C59.0716 0.675944 59.4419 0.915202 59.7837 1.17725C60.1255 1.4279 60.4559 1.66146 60.7749 1.87793C61.1053 2.08301 61.4756 2.18555 61.8857 2.18555C62.2275 2.18555 62.4953 2.1001 62.689 1.9292C62.894 1.7583 63.0479 1.56462 63.1504 1.34814C63.2529 1.12028 63.3213 0.892415 63.3555 0.664551C63.3896 0.436686 63.4124 0.260091 63.4238 0.134766H66.4316ZM91.9912 20.7622C91.9912 21.5256 91.8944 22.2148 91.7007 22.8301C91.507 23.4339 91.2507 23.9694 90.9316 24.4365C90.6126 24.8923 90.2424 25.2853 89.8208 25.6157C89.3993 25.9347 88.9549 26.1968 88.4878 26.4019C88.0321 26.6069 87.5649 26.7607 87.0864 26.8633C86.6193 26.9544 86.175 27 85.7534 27H77.7383C77.123 27 76.4508 26.8918 75.7217 26.6753C74.9925 26.4588 74.3146 26.1056 73.688 25.6157C73.0728 25.1144 72.5544 24.4707 72.1328 23.6846C71.7227 22.887 71.5176 21.9129 71.5176 20.7622V14.7466C71.5176 13.6073 71.7227 12.6445 72.1328 11.8584C72.5544 11.0609 73.0728 10.4172 73.688 9.92725C74.3146 9.42594 74.9925 9.06706 75.7217 8.85059C76.4508 8.63411 77.123 8.52588 77.7383 8.52588H85.7534C86.8927 8.52588 87.8612 8.73096 88.6587 9.14111C89.4562 9.55127 90.0999 10.0697 90.5898 10.6963C91.0798 11.3115 91.4329 11.9837 91.6494 12.7129C91.8773 13.4421 91.9912 14.12 91.9912 14.7466V20.7622ZM87.5479 14.7808C87.5479 14.1655 87.394 13.7098 87.0864 13.4136C86.7788 13.1174 86.3345 12.9692 85.7534 12.9692H77.7725C77.18 12.9692 76.73 13.123 76.4224 13.4307C76.1147 13.7269 75.9609 14.1655 75.9609 14.7466V20.7622C75.9609 21.3433 76.1147 21.7876 76.4224 22.0952C76.73 22.4028 77.18 22.5566 77.7725 22.5566H85.7534C86.3573 22.5566 86.8073 22.4028 87.1035 22.0952C87.3997 21.7876 87.5479 21.3433 87.5479 20.7622V14.7808ZM137.095 20.7622C137.095 21.5256 136.998 22.2148 136.804 22.8301C136.611 23.4339 136.354 23.9694 136.035 24.4365C135.716 24.8923 135.346 25.2853 134.924 25.6157C134.503 25.9347 134.058 26.1968 133.591 26.4019C133.136 26.6069 132.668 26.7607 132.19 26.8633C131.723 26.9544 131.278 27 130.857 27H122.842C122.227 27 121.554 26.8918 120.825 26.6753C120.096 26.4588 119.418 26.1056 118.792 25.6157C118.176 25.1144 117.658 24.4707 117.236 23.6846C116.826 22.887 116.621 21.9129 116.621 20.7622V14.7466C116.621 13.6073 116.826 12.6445 117.236 11.8584C117.658 11.0609 118.176 10.4172 118.792 9.92725C119.418 9.42594 120.096 9.06706 120.825 8.85059C121.554 8.63411 122.227 8.52588 122.842 8.52588H130.857C131.996 8.52588 132.965 8.73096 133.762 9.14111C134.56 9.55127 135.203 10.0697 135.693 10.6963C136.183 11.3115 136.536 11.9837 136.753 12.7129C136.981 13.4421 137.095 14.12 137.095 14.7466V20.7622ZM132.651 14.7808C132.651 14.1655 132.498 13.7098 132.19 13.4136C131.882 13.1174 131.438 12.9692 130.857 12.9692H122.876C122.284 12.9692 121.833 13.123 121.526 13.4307C121.218 13.7269 121.064 14.1655 121.064 14.7466V20.7622C121.064 21.3433 121.218 21.7876 121.526 22.0952C121.833 22.4028 122.284 22.5566 122.876 22.5566H130.857C131.461 22.5566 131.911 22.4028 132.207 22.0952C132.503 21.7876 132.651 21.3433 132.651 20.7622V14.7808ZM155.306 12.9692H145.308C144.704 12.9692 144.249 13.123 143.941 13.4307C143.633 13.7269 143.479 14.1655 143.479 14.7466V27H139.036V14.7466C139.036 13.9832 139.133 13.2996 139.327 12.6958C139.52 12.092 139.777 11.5622 140.096 11.1064C140.426 10.6393 140.802 10.2463 141.224 9.92725C141.645 9.59684 142.084 9.3291 142.54 9.12402C143.007 8.91895 143.474 8.77083 143.941 8.67969C144.419 8.57715 144.864 8.52588 145.274 8.52588H155.306V12.9692ZM172.56 12.9692H162.562C161.958 12.9692 161.502 13.123 161.195 13.4307C160.887 13.7269 160.733 14.1655 160.733 14.7466V27H156.29V14.7466C156.29 13.9832 156.387 13.2996 156.581 12.6958C156.774 12.092 157.031 11.5622 157.35 11.1064C157.68 10.6393 158.056 10.2463 158.478 9.92725C158.899 9.59684 159.338 9.3291 159.793 9.12402C160.261 8.91895 160.728 8.77083 161.195 8.67969C161.673 8.57715 162.118 8.52588 162.528 8.52588H172.56V12.9692ZM193.556 14.644C193.556 15.2593 193.448 15.9258 193.231 16.6436C193.015 17.3499 192.662 18.0107 192.172 18.626C191.693 19.2298 191.061 19.7368 190.275 20.147C189.5 20.5571 188.555 20.7622 187.438 20.7622H179.423V16.541H187.438C188.042 16.541 188.509 16.3587 188.839 15.9941C189.17 15.6182 189.335 15.1567 189.335 14.6099C189.335 14.0288 189.147 13.5731 188.771 13.2427C188.406 12.9123 187.962 12.7471 187.438 12.7471H179.423C178.819 12.7471 178.352 12.9351 178.021 13.311C177.691 13.6756 177.526 14.1313 177.526 14.6782V20.8818C177.526 21.4743 177.708 21.9357 178.073 22.2661C178.449 22.5965 178.91 22.7617 179.457 22.7617H187.438V27H179.423C178.808 27 178.141 26.8918 177.423 26.6753C176.717 26.4588 176.056 26.1113 175.441 25.6328C174.837 25.1429 174.33 24.5106 173.92 23.7358C173.51 22.9497 173.305 21.9984 173.305 20.8818V14.644C173.305 14.0288 173.413 13.368 173.629 12.6616C173.846 11.9438 174.193 11.283 174.672 10.6792C175.162 10.064 175.794 9.55127 176.569 9.14111C177.355 8.73096 178.306 8.52588 179.423 8.52588H187.438C188.053 8.52588 188.714 8.63411 189.42 8.85059C190.138 9.06706 190.799 9.42025 191.403 9.91016C192.018 10.3887 192.531 11.021 192.941 11.8071C193.351 12.5819 193.556 13.5275 193.556 14.644ZM212.656 20.7622C212.656 21.5256 212.559 22.2148 212.365 22.8301C212.172 23.4339 211.915 23.9694 211.596 24.4365C211.277 24.8923 210.907 25.2853 210.485 25.6157C210.064 25.9347 209.619 26.1968 209.152 26.4019C208.697 26.6069 208.229 26.7607 207.751 26.8633C207.284 26.9544 206.84 27 206.418 27H194.387V22.5566H206.384C206.988 22.5566 207.443 22.4028 207.751 22.0952C208.059 21.7876 208.212 21.3433 208.212 20.7622C208.155 19.5773 207.557 18.9849 206.418 18.9849H199.531C198.551 18.9849 197.719 18.814 197.036 18.4722C196.352 18.1304 195.794 17.7031 195.361 17.1904C194.939 16.6777 194.632 16.1252 194.438 15.5327C194.256 14.9403 194.165 14.3877 194.165 13.875C194.165 12.8838 194.341 12.0521 194.694 11.3799C195.048 10.6963 195.492 10.1437 196.027 9.72217C196.563 9.30062 197.144 8.9987 197.771 8.81641C198.397 8.62272 198.984 8.52588 199.531 8.52588H210.451V12.9692H199.565C199.337 12.9692 199.155 12.9977 199.018 13.0547C198.893 13.1003 198.796 13.1686 198.728 13.2598C198.671 13.3395 198.636 13.4307 198.625 13.5332C198.614 13.6243 198.608 13.7155 198.608 13.8066C198.619 13.9889 198.653 14.1313 198.71 14.2339C198.767 14.3364 198.836 14.4105 198.916 14.4561C199.007 14.5016 199.104 14.5301 199.206 14.5415C199.32 14.5415 199.428 14.5415 199.531 14.5415H206.418C207.557 14.5415 208.526 14.7466 209.323 15.1567C210.121 15.5669 210.764 16.0853 211.254 16.7119C211.744 17.3271 212.097 17.9993 212.314 18.7285C212.542 19.4577 212.656 20.1356 212.656 20.7622Z" fill="white"/>
</svg>
